<?xml version="1.0" encoding="UTF-8" standalone="no"?>
<svg
   xmlns:dc="http://purl.org/dc/elements/1.1/"
   xmlns:cc="http://creativecommons.org/ns#"
   xmlns:rdf="http://www.w3.org/1999/02/22-rdf-syntax-ns#"
   xmlns:svg="http://www.w3.org/2000/svg"
   xmlns="http://www.w3.org/2000/svg"
   xmlns:sodipodi="http://sodipodi.sourceforge.net/DTD/sodipodi-0.dtd"
   xmlns:inkscape="http://www.inkscape.org/namespaces/inkscape"
   viewBox="0 0 24 24"
   version="1.1"
   id="svg4"
   sodipodi:docname="icon_browse.svg"
   inkscape:version="1.0.2 (e86c870879, 2021-01-15)">
  <metadata
     id="metadata10">
    <rdf:RDF>
      <cc:Work
         rdf:about="">
        <dc:format>image/svg+xml</dc:format>
        <dc:type
           rdf:resource="http://purl.org/dc/dcmitype/StillImage" />
        <dc:title></dc:title>
      </cc:Work>
    </rdf:RDF>
  </metadata>
  <defs
     id="defs8" />
  <sodipodi:namedview
     pagecolor="#ffffff"
     bordercolor="#666666"
     borderopacity="1"
     objecttolerance="10"
     gridtolerance="10"
     guidetolerance="10"
     inkscape:pageopacity="0"
     inkscape:pageshadow="2"
     inkscape:window-width="1680"
     inkscape:window-height="978"
     id="namedview6"
     showgrid="false"
     inkscape:zoom="30.625"
     inkscape:cx="12"
     inkscape:cy="12"
     inkscape:window-x="0"
     inkscape:window-y="0"
     inkscape:window-maximized="1"
     inkscape:current-layer="svg4" />
  <path
     d="M15.716,4.354a8.031,8.031,0,1,0-2.7,13.138l3.58,3.581A3.164,3.164,0,0,0,21.073,16.6l-3.58-3.58A8.046,8.046,0,0,0,15.716,4.354ZM10.034,16.069A6.033,6.033,0,1,1,14.3,14.3,6,6,0,0,1,10.034,16.069Zm9.625,1.943a1.165,1.165,0,0,1-1.647,1.647l-3.186-3.186a8.214,8.214,0,0,0,.89-.757,8.214,8.214,0,0,0,.757-.89ZM11.035,14a1,1,0,0,1-1,1,4.972,4.972,0,0,1-4.966-4.965,1.014,1.014,0,0,1,1-1.017.984.984,0,0,1,1,.982v.035A2.968,2.968,0,0,0,10.035,13,1,1,0,0,1,11.035,14Z"
     id="path2" />
</svg>
